<?xml version="1.0" standalone="no"?>
<!DOCTYPE svg PUBLIC "-//W3C//DTD SVG 20010904//EN"
 "http://www.w3.org/TR/2001/REC-SVG-20010904/DTD/svg10.dtd">
<svg version="1.0" xmlns="http://www.w3.org/2000/svg"
 width="1028.000000pt" height="1028.000000pt" viewBox="0 0 1028.000000 1028.000000"
 preserveAspectRatio="xMidYMid meet">
<metadata>
Created by potrace 1.14, written by Peter Selinger 2001-2017
</metadata>
<g transform="translate(0.000000,1028.000000) scale(0.100000,-0.100000)"
fill="#000000" stroke="none">
<path d="M4909 9436 c-2 -2 -53 -6 -114 -10 -60 -3 -119 -8 -130 -10 -11 -2
-49 -7 -85 -11 -36 -5 -72 -9 -80 -10 -76 -11 -116 -18 -120 -20 -3 -2 -26 -6
-50 -10 -25 -4 -83 -16 -130 -27 -47 -11 -96 -22 -110 -24 -37 -7 -287 -80
-340 -99 -25 -9 -52 -18 -60 -20 -32 -7 -231 -85 -345 -135 -474 -210 -877
-489 -1242 -862 -55 -56 -130 -137 -164 -178 -35 -41 -67 -77 -70 -80 -20 -16
-215 -284 -284 -390 -236 -362 -460 -826 -573 -1190 -55 -176 -113 -441 -132
-610 -6 -52 -13 -111 -15 -130 -24 -203 -24 -634 0 -870 2 -19 6 -66 10 -105
66 -712 324 -1286 787 -1755 144 -146 212 -206 368 -323 410 -310 836 -475
1355 -526 97 -9 436 -7 525 4 255 30 421 62 625 122 572 166 1145 455 1559
787 489 391 900 970 1102 1549 33 94 97 314 108 367 2 14 10 50 16 80 55 278
78 651 57 924 -11 132 95 47 -981 786 -197 135 -379 261 -406 280 -27 19 -129
90 -227 157 -317 217 -402 276 -493 346 -86 65 -126 62 -225 -18 -35 -28 -169
-121 -535 -373 -52 -36 -129 -89 -170 -118 -41 -29 -120 -83 -175 -121 -150
-102 -712 -495 -952 -667 -158 -112 -217 -161 -233 -189 -21 -36 -21 -46 -15
-196 3 -88 8 -170 10 -182 2 -13 6 -60 10 -104 3 -44 10 -107 15 -140 5 -33
11 -82 15 -110 29 -236 133 -680 201 -863 105 -279 270 -541 538 -852 104
-121 420 -440 435 -440 11 0 582 249 594 260 4 3 -46 42 -110 86 -65 43 -156
111 -203 150 -350 292 -638 741 -788 1229 -61 197 -110 426 -127 596 -4 30 -8
61 -10 69 -2 8 -7 49 -11 90 -4 41 -8 82 -9 90 -6 43 20 68 201 190 101 69
312 211 467 317 155 105 352 239 437 297 85 57 236 159 334 227 103 69 189
122 202 122 13 0 82 -40 154 -89 254 -174 668 -455 850 -578 102 -68 272 -184
379 -256 106 -72 204 -138 216 -148 36 -28 45 -55 40 -118 -12 -144 -17 -197
-31 -314 -13 -109 -19 -155 -41 -270 -43 -235 -158 -518 -326 -800 -239 -401
-530 -694 -927 -932 -549 -329 -1035 -535 -1470 -622 -220 -44 -276 -50 -460
-51 -188 0 -297 11 -435 46 -361 90 -687 280 -975 569 -227 228 -393 481 -515
790 -68 171 -72 219 -24 284 141 188 176 297 139 432 -30 110 -106 209 -215
279 -88 57 -90 62 -89 189 1 101 10 265 20 341 2 17 6 55 10 85 3 30 8 64 10
75 3 11 7 36 10 55 32 214 113 510 204 748 35 91 60 122 93 116 136 -24 230
-32 349 -29 75 1 140 5 145 8 4 3 24 8 43 11 204 32 502 183 651 330 290 286
371 715 209 1112 -18 44 -41 101 -51 127 l-19 48 27 28 c57 56 378 223 623
324 155 64 457 160 570 182 14 3 59 11 100 19 41 9 91 17 110 20 19 3 46 8 59
10 13 3 49 8 80 12 31 3 70 8 86 11 54 9 588 11 665 3 41 -5 98 -12 125 -15
138 -16 377 -60 495 -92 30 -8 65 -16 77 -19 65 -13 354 -113 477 -165 573
-242 1067 -630 1477 -1159 36 -47 84 -112 106 -144 47 -69 46 -90 -11 -141
-88 -80 -167 -204 -208 -329 -24 -72 -32 -242 -17 -326 47 -246 219 -496 421
-608 78 -44 167 -65 291 -67 65 -2 120 -5 122 -7 5 -5 12 -46 20 -123 4 -33 9
-73 11 -90 11 -89 19 -282 19 -445 0 -260 -13 -404 -55 -605 -12 -55 -23 -109
-26 -121 -13 -64 -90 -322 -130 -430 -206 -569 -554 -1082 -993 -1462 -36 -31
-75 -65 -86 -76 -11 -10 -82 -65 -159 -123 -124 -94 -175 -129 -362 -249 -320
-205 -757 -393 -1167 -503 -180 -48 -481 -105 -622 -116 -38 -3 -79 -8 -90
-10 -134 -27 -894 -27 -1122 0 -16 1 -59 6 -98 10 -60 5 -147 18 -360 50 -81
13 -302 64 -385 90 -147 47 -357 130 -592 234 -124 56 -234 101 -244 101 -16
0 -16 -2 2 -21 20 -22 34 -34 195 -155 409 -308 882 -555 1341 -698 113 -36
311 -88 373 -99 17 -3 39 -8 50 -10 11 -3 40 -8 65 -12 25 -4 56 -10 70 -12
37 -7 59 -10 120 -18 30 -3 69 -8 85 -10 191 -27 688 -27 905 0 19 2 53 6 75
9 22 3 60 8 85 11 25 3 70 10 100 15 30 5 69 12 85 14 683 114 1355 418 1915
866 732 585 1258 1391 1490 2285 38 144 82 364 94 470 4 28 11 86 16 130 28
224 31 661 5 865 -4 33 -8 70 -20 178 -3 26 -8 54 -10 62 -2 8 -7 35 -10 60
-11 84 -55 285 -90 415 -20 72 -37 137 -39 145 -13 52 -96 285 -141 395 -291
718 -760 1326 -1375 1786 -103 77 -281 199 -351 239 -401 232 -752 380 -1152
484 -120 32 -352 81 -423 90 -16 2 -48 7 -71 10 -72 11 -106 16 -163 21 -30 3
-75 8 -100 11 -53 6 -555 15 -561 10z m-1979 -1382 c26 -46 67 -171 80 -244
17 -91 14 -241 -5 -330 -49 -231 -204 -437 -417 -553 -62 -34 -200 -82 -261
-91 -27 -4 -59 -9 -70 -12 -38 -7 -200 -7 -247 0 -116 18 -140 27 -140 52 0
55 193 354 383 593 173 217 601 628 645 619 8 -2 23 -17 32 -34z m5458 -1136
c11 -14 95 -181 130 -258 64 -142 169 -441 203 -577 17 -71 6 -83 -75 -83
-203 0 -376 147 -451 384 -61 189 -20 383 104 499 52 49 71 56 89 35z m-6887
-2057 c113 -71 154 -183 113 -304 -14 -43 -86 -137 -104 -137 -4 0 -10 17 -14
38 -19 110 -37 235 -42 297 -3 39 -7 85 -9 103 -2 17 0 32 4 32 4 0 27 -13 52
-29z"/>
<path d="M5126 6098 c-17 -27 -237 -389 -243 -401 -3 -5 -7 -200 -9 -435 -2
-285 -7 -436 -15 -454 -8 -19 -71 -67 -215 -163 -112 -74 -204 -136 -204 -138
0 -5 1389 -2 1393 3 3 3 -82 64 -188 135 -107 72 -200 142 -210 157 -14 25
-16 78 -18 455 l-2 428 -133 218 c-74 119 -136 217 -138 217 -2 0 -10 -10 -18
-22z"/>
<path d="M7868 4456 c-209 -61 -345 -271 -310 -478 58 -338 472 -475 712 -236
207 208 150 553 -114 683 -60 30 -84 36 -156 40 -55 3 -102 0 -132 -9z m212
-228 c122 -70 145 -234 46 -333 -119 -118 -313 -65 -357 98 -25 93 24 197 114
242 68 34 129 32 197 -7z"/>
<path d="M4953 4399 c-25 -9 -25 -7 -25 -149 0 -157 -7 -149 70 -75 56 55 68
63 74 48 5 -14 30 -179 43 -287 11 -97 29 -140 40 -94 7 32 55 340 57 372 1
14 5 25 9 24 4 -2 34 -29 68 -60 34 -32 65 -58 70 -58 4 0 7 59 7 130 -1 103
-4 133 -16 140 -8 5 -93 9 -188 10 -96 0 -177 2 -181 4 -3 2 -16 0 -28 -5z"/>
</g>
</svg>
